<?xml version="1.0" encoding="utf-8"?>
<!-- Generator: Adobe Illustrator 16.0.0, SVG Export Plug-In . SVG Version: 6.00 Build 0)  -->
<!DOCTYPE svg PUBLIC "-//W3C//DTD SVG 1.1//EN" "http://www.w3.org/Graphics/SVG/1.1/DTD/svg11.dtd">
<svg version="1.1" id="Capa_1" xmlns="http://www.w3.org/2000/svg" xmlns:xlink="http://www.w3.org/1999/xlink" x="0px" y="0px"
	 width="402px" height="135px" viewBox="0 0 402 135" enable-background="new 0 0 402 135" xml:space="preserve">
<g>
	<g>
		<path fill="#F6882F" d="M97.937,43.082C93.482,21.165,72.096,7.02,50.183,11.476c-17.013,3.46-29.331,17.132-31.917,33.318
			c5.479-5.593,12.614-9.67,20.861-11.346c21.911-4.456,43.295,9.685,47.753,31.592c0.997,4.911,1.052,9.769,0.316,14.439
			C96.258,70.202,100.714,56.747,97.937,43.082"/>
		<path fill="#F6882F" d="M47.025,98.126c-4.448-2.285-8.279-5.299-11.444-8.793c1.554,12.882,9.255,24.778,21.658,31.175
			c19.865,10.233,44.291,2.437,54.535-17.44c7.946-15.437,5.014-33.605-5.999-45.748c0.946,7.764-0.356,15.889-4.204,23.369
			C91.322,100.565,66.895,108.364,47.025,98.126"/>
		<path fill="#F6882F" d="M46.958,53.6c4.369-2.435,8.995-3.951,13.664-4.653c-11.579-5.845-25.753-6.049-37.944,0.728
			C3.123,60.52-3.934,85.169,6.923,104.718c8.419,15.185,25.166,22.824,41.379,20.408c-6.978-3.535-13.017-9.117-17.104-16.479
			C20.349,89.091,27.398,64.45,46.958,53.6"/>
	</g>
	<g>
		<rect x="139.823" y="10.647" fill="#F6882F" width="11.145" height="57.152"/>
		<path fill="#F6882F" d="M199.777,69.328c-17.432,0-28.274-13.351-28.274-30.176c0-16.976,11.227-30.01,28.274-30.01
			c17.058,0,28.276,13.034,28.276,30.01C228.054,55.978,217.218,69.328,199.777,69.328 M199.777,20.129
			c-10.533,0-16.741,9.33-16.741,18.565c0,8.796,4.395,19.64,16.741,19.64c12.358,0,16.746-10.844,16.746-19.64
			C216.523,29.459,210.314,20.129,199.777,20.129"/>
		<path fill="#F6882F" d="M275.573,23.229c-2.13-2.876-4.862-4.699-8.566-4.699c-3.563,0-6.977,2.738-6.977,6.445
			c0,9.624,22.664,5.605,22.664,24.791c0,11.44-7.121,19.562-18.8,19.562c-7.879,0-13.643-4.561-17.582-11.151l7.202-7.049
			c1.517,4.398,5.541,8.338,10.305,8.338c4.555,0,7.35-3.87,7.35-8.263c0-5.904-5.451-7.589-9.918-9.321
			c-7.354-3.035-12.739-6.745-12.739-15.62c0-9.472,7.053-17.119,16.679-17.119c5.079,0,12.122,2.489,15.614,6.361L275.573,23.229z"
			/>
		<polygon fill="#F6882F" points="317.86,20.354 317.86,32.941 334.015,32.941 334.015,42.636 317.86,42.636 317.86,67.8 
			306.725,67.8 306.725,10.653 335.071,10.653 335.071,20.354 		"/>
		<path fill="#F6882F" d="M365.612,55.755L360.919,67.8h-11.756l22.289-58.657h8.641l21.67,58.657h-11.891l-4.4-12.045H365.612z
			 M375.244,25.888h-0.158l-6.29,20.769h13.569L375.244,25.888z"/>
	</g>
	<g>
		<path fill="#F6882F" d="M236.194,87.436c0.891-0.004,1.639-0.313,2.244-0.935c0.605-0.611,0.909-1.362,0.899-2.255
			c-0.006-0.863-0.317-1.603-0.931-2.207c-0.614-0.604-1.369-0.905-2.257-0.899c-0.892,0.006-1.642,0.318-2.245,0.932
			c-0.607,0.615-0.909,1.354-0.903,2.221c0.006,0.889,0.315,1.641,0.938,2.243C234.553,87.147,235.304,87.443,236.194,87.436z"/>
		<path fill="#F6882F" d="M251.723,97.171c0.531-1.05,0.74-1.574,0.9-2.462c0.157-0.906,0.201-1.559,0.161-2.188
			c-0.039-0.61-0.256-1.235-0.608-1.707c-0.158-0.214-0.493-0.502-0.885-0.727c-0.418-0.241-0.902-0.395-1.472-0.353
			c-0.654,0.042-0.778,0.153-0.96,0.215c-0.188,0.062-0.367,0.14-0.809,0.432c-0.4,0.267-0.791,0.644-1.083,1.107
			c-0.352,0.554-0.604,1.203-0.72,1.646c-0.213,0.801-0.288,1.623-0.093,2.501c0.197,0.874,0.463,1.63,0.799,2.265
			c0.232,0.458,0.539,0.915,0.925,1.369c0.387,0.457,0.136,0.149-0.384,0.893c0,0-4.015,5.297-6.881,5.315
			c-0.511,0.004-0.914-0.219-1.208-0.673c-0.295-0.46-0.516-1.065-0.66-1.831c-0.144-0.762-0.138-3.507-0.144-4.525
			c-0.008-1.017-0.023-1.999-0.042-2.953c-0.018-0.956-0.075-1.813-0.169-2.579c-0.097-0.764-0.253-1.368-0.472-1.823
			c-0.224-0.463-0.536-0.688-0.936-0.687c-0.971,0.011-1.807,0.444-2.515,1.297c-0.707,0.857-1.391,1.938-2.038,3.239
			c-0.648,1.305-6.414,10.955-10.083,10.98c-0.683,0.006-1.265-0.28-1.744-0.849c-0.474-0.569-0.883-1.289-1.219-2.162
			c-0.336-0.877-0.379-1.146-0.616-2.201c-0.23-1.052-0.447-2.076-0.629-3.07c-0.188-0.986-0.375-1.885-0.572-2.685
			c-0.199-0.799-0.412-1.361-0.645-1.691c-0.229-0.308-0.716-0.521-1.453-0.641c-0.742-0.118-1.562-0.211-2.468-0.269
			c-0.901-0.058-1.808-0.116-2.707-0.177c-0.906-0.05-1.626-0.152-2.159-0.301c0.021-0.306,0.02-0.57-0.006-0.799
			c-0.032-0.104-0.054-0.223-0.083-0.349c-0.078-0.509-0.324-0.935-0.732-1.292c-0.408-0.359-0.893-0.529-1.457-0.523
			c-0.608,0.004-1.118,0.225-1.535,0.662c-0.418,0.434-0.623,0.96-0.621,1.569c0.006,0.862,0.366,1.497,1.08,1.899
			c0.131,0.127,0.368,0.238,0.712,0.333c0.346,0.102,0.309,0.113,0.689,0.239c-0.054,0.203-4.454,12.8-9.045,12.833
			c-0.689,0.003-1.279-0.391-1.767-1.188c-0.485-0.794-0.693-1.437-1.069-2.618c-0.379-1.18-0.716-2.47-1.021-3.87
			c-0.305-1.391-0.617-2.687-0.941-3.858c-0.329-1.186-0.691-2.175-1.097-2.975c-0.396-0.799-0.876-1.195-1.438-1.191
			c-0.329,0.002-0.609,0.356-0.848,1.051c-0.237,0.705-0.468,1.585-0.687,2.645c-0.226,1.054-0.463,2.203-0.723,3.439
			c-0.258,1.237-0.578,2.385-0.965,3.438c-0.387,1.059-0.861,1.946-1.416,2.648c-0.553,0.702-1.239,1.054-2.05,1.063
			c-0.434,0-0.844-0.218-1.227-0.657c-0.385-0.443-0.741-1.029-1.063-1.754c-0.325-0.72-0.615-1.552-0.878-2.492
			c-0.257-0.939-0.491-1.91-0.688-2.914c-0.198-1.002-0.351-1.998-0.459-2.988c-0.113-0.996-0.168-1.899-0.172-2.706
			c-0.006-0.466-0.186-0.707-0.542-0.722c-0.357-0.029-0.756,0.136-1.197,0.502c-0.443,0.355-0.86,0.883-1.249,1.568
			c-0.389,0.694-0.62,1.493-0.687,2.417c-0.099,0.986-0.11,2.047-0.035,3.165c0.073,1.119,0.219,2.228,0.447,3.335
			c0.219,1.102,0.518,2.167,0.894,3.181c0.377,1.015,0.835,1.905,1.381,2.681c0.535,0.773,1.16,1.383,1.862,1.841
			c0.702,0.448,1.497,0.673,2.387,0.667c0.534-0.006,1.031-0.143,1.487-0.411c0.456-0.273,0.876-0.625,1.246-1.059
			c0.386-0.434,0.73-0.926,1.048-1.479c0.314-0.545,0.594-1.115,0.847-1.7c0.573-1.355,1.045-2.898,1.414-4.633
			c0.151,0,0.282,0.227,0.389,0.686c0.103,0.46,0.232,1.03,0.393,1.714c0.159,0.688,0.353,1.423,0.589,2.212
			c0.231,0.785,1.589,4.605,5.44,4.575c7.303-0.051,10.382-8.7,12.757-16.119c0.154,0.073,0.31,0.112,0.459,0.112
			c0.255,0.069,0.555,0.131,0.9,0.181c0.343,0.048,0.692,0.107,1.05,0.165c0.358,0.058,0.69,0.147,0.993,0.261
			c0.308,0.115,0.537,0.268,0.693,0.473c0.205,0.28,0.364,0.841,0.485,1.673c0.119,0.839,0.266,1.808,0.422,2.897
			c0.161,1.093,0.378,2.245,0.656,3.45c0.276,1.209,0.684,2.311,1.225,3.314c0.543,1.002,1.257,1.821,2.139,2.464
			c0.886,0.643,1.996,0.958,3.348,0.948c6.729-0.048,11.366-10.107,11.804-10.923c0.443-0.821,0.811-1.547,1.114-2.185
			c0.152-0.001,0.217,0.323,0.199,0.968c-0.025,0.654-0.041,1.454-0.061,2.411c-0.021,0.951,0.004,1.994,0.078,3.125
			c0.071,1.134,0.276,2.175,0.621,3.128c0.332,0.95,0.855,1.748,1.562,2.389c0.701,0.649,1.678,0.964,2.923,0.956
			c0.865-0.008,1.694-0.183,2.495-0.512c0.801-0.338,1.556-0.748,2.264-1.243c0.71-0.483,1.348-1.016,1.92-1.598
			c0.558-0.574,1.053-1.112,1.474-1.611c0.414-0.495,0.734-0.914,0.963-1.247c0.059-0.081,0.09-0.131,0.126-0.195
			c0.031-0.025,0.071-0.035,0.101-0.071l1.17-1.805c0.72,0.758,5.395,2.905,5.44,9.238c0.02,2.704-2.358,5.641-4.463,5.655
			c-2.104,0.016-3.138-1.723-3.205-1.849c-0.351-0.615-1.193-0.067-0.801,0.632c0.381,0.606,0.926,1.229,1.618,1.857
			c0.689,0.629,1.477,1.098,2.378,1.416c0.89,0.312,1.854,0.479,2.939,0.473c3.574-0.023,7.943-4.645,7.906-9.731
			C260.385,101.91,252.186,97.627,251.723,97.171z"/>
	</g>
	<path fill="#F6882F" d="M241.129,116.013c-42.088-0.069-69.349,7.262-69.344,8.158c0.03,4.6,12.744-7.943,71.582-5.332
		C243.367,118.839,241.685,117.591,241.129,116.013z"/>
	<path fill="#F6882F" d="M260.816,118.945c32.643-0.881,42.532,3.483,55.506,7.235c3.718,1.083,6.243-4.296,1.911-5.975
		c-7.354-2.846-19.21-5.472-55.916-4.112C262.003,117.833,260.816,118.945,260.816,118.945z"/>
	<path fill="#F6882F" d="M183.054,78.961c-13.609,0.1-30.386,7.023-43.26-2.641c3.337,8.064,12.095,10.238,21.051,10.397
		c-0.316,5.647-2.038,21.645-1.953,33.202c0.023,3.16,1.81,6.4,4.028,6.381c2.215-0.016,1.84-7.53,1.799-9.517
		c-0.034-1.817-0.838-23.833-0.994-30.078c7.911-0.201,15.543-1.656,19.285-1.681C187.719,84.99,187.582,78.927,183.054,78.961z"/>
	<path fill="#F6882F" d="M265.113,95.407c0.054,0.162-0.093,0.351,0.058,0.687"/>
	<line fill="#F6882F" x1="264.746" y1="94.465" x2="264.721" y2="94.505"/>
	<path fill="#F6882F" d="M264.819,94.691c0.002,0.004,0.002,0.004,0.002,0.006c0.004,0.021,0.008,0.026,0.014,0.046
		c-0.048-0.236-0.093-0.459-0.12-0.636C264.748,94.326,264.783,94.523,264.819,94.691z"/>
	<g>
		<path fill="#F6882F" d="M320.167,96.2c-0.479-1.129-1.122-2.113-1.926-2.944c-0.809-0.835-1.749-1.497-2.823-1.982
			c-1.072-0.489-2.215-0.723-3.438-0.716c-1.221,0.008-2.369,0.261-3.435,0.764c-1.062,0.503-1.994,1.179-2.786,2.024
			c-0.795,0.845-1.421,1.835-1.873,2.971c-0.447,1.134-0.664,2.353-0.652,3.649c0.006,0.899-0.089,0.845,0.134,1.66
			c0,0-2.579,3.481-4.838,3.496c-0.681,0.006-1.274-0.391-1.758-1.191c-0.493-0.8-0.418-0.842-0.8-2.024
			c-0.374-1.18-0.728-2.47-1.04-3.868c-0.311-1.394-0.636-2.687-0.96-3.863c-0.329-1.182-0.694-2.172-1.094-2.969
			c-0.4-0.8-0.882-1.197-1.438-1.195c-0.457,0.006-0.888,0.258-1.274,0.754c-0.388,0.501-0.749,1.151-1.077,1.958
			c-0.322,0.801-3.772,10.124-5.329,10.137c-0.621,0.004-1.188-1.862-1.6-3.085c-0.313-0.988-0.628-2.019-0.941-3.085
			c-0.312-1.063-0.652-2.06-1.012-2.986c-0.363-0.929-0.759-1.72-1.186-2.378c-0.42-0.656-0.89-1.052-1.398-1.171
			c-0.048,0-0.1-0.012-0.153-0.025c-0.048-0.007-0.1-0.013-0.152-0.013h-0.038c-0.485,0.002-1.012,0.324-1.385,1.056
			c-1.964,3.894-4.899,12.285-6.42,12.297c-0.034,0-0.067-0.012-0.101-0.018v-0.002c-0.004,0.002-0.004,0.002-0.006,0.002
			c-0.519-0.065-1.008-0.606-1.444-1.313l-0.004,0.004c-1.244-1.917-2.035-3.818-2.557-5.469c-0.006-0.004-0.014-0.004-0.014-0.01
			c-0.139-0.472-0.371-1.201-0.515-1.921c-0.006-0.02-0.01-0.024-0.014-0.046c0-0.002,0-0.002-0.002-0.006
			c-0.036-0.168-0.071-0.365-0.104-0.584c-0.045-0.247-0.071-0.408-0.071-0.408l0.012,0.012c-0.187-1.346-0.327-3.113-0.327-3.113
			c-0.01-0.199-0.02-0.402-0.02-0.589c-0.003-0.462-0.184-0.706-0.539-0.722c-0.358-0.026-0.758,0.138-1.199,0.503
			c-0.443,0.356-0.859,0.881-1.249,1.569c-0.388,0.694-0.617,1.491-0.688,2.416c-0.07,0.728-0.08,1.509-0.06,2.309
			c-0.009,0.548,0.01,1.112,0.081,1.708c0.023,0.18,0.054,0.348,0.081,0.526c0.078,0.653,0.175,1.307,0.311,1.959
			c0.133,0.671,0.311,1.328,0.503,1.971c0.141,0.499,0.288,0.986,0.449,1.451c0.261,0.734,0.552,1.456,0.891,2.154
			c0.334,0.69,0.732,1.32,1.197,1.879c0.46,0.555,0.979,0.996,1.557,1.324c0.575,0.32,1.22,0.485,1.926,0.479
			c0.893-0.006,1.668-0.297,2.327-0.873c0.655-0.579,1.221-1.303,1.701-2.168c0.479-0.87,0.885-1.812,1.221-2.837
			c0.337-1.021,0.621-1.963,0.854-2.83c0.238-0.868,0.441-1.591,0.622-2.161c0.171-0.571,0.343-0.859,0.521-0.859
			c0.158-0.002,0.312,0.282,0.468,0.853c0.156,0.569,0.331,1.29,0.526,2.152c0.198,0.865,0.438,1.802,0.729,2.818
			c0.285,1.02,0.641,1.96,1.066,2.822c0.428,0.854,0.956,1.572,1.58,2.139c0.627,0.57,1.376,0.851,2.244,0.845l0.266-0.004h0.034
			h0.35c0.687-0.004,1.314-0.288,1.88-0.854c0.57-0.56,1.079-1.261,1.534-2.087c0.45-0.835,0.862-1.738,1.233-2.725
			c0.378-0.981,0.702-1.884,0.976-2.712c0.276-0.831,0.518-1.528,0.73-2.085c0.217-0.563,0.394-0.846,0.548-0.848
			c0.148,0,0.293,0.28,0.422,0.839c0.137,0.557,0.297,1.249,0.494,2.076c0.196,0.827,0.441,1.726,0.729,2.7
			c0.282,0.98,0.66,1.88,1.123,2.704c0.463,0.825,1.028,1.52,1.696,2.067c0.668,0.556,1.469,0.83,2.408,0.822
			c0.867-0.004,1.685-0.183,2.459-0.511c0.773-0.339,1.494-0.746,2.168-1.241c0.669-0.485,1.267-1.016,1.802-1.595
			c0.526-0.578,0.986-1.115,1.362-1.612c0.171-0.23,0.265-0.382,0.398-0.579c0.462,1.045,1.056,1.973,1.813,2.761
			c0.804,0.831,1.748,1.487,2.817,1.979c1.072,0.489,2.223,0.731,3.446,0.72c1.219-0.007,2.356-0.264,3.426-0.767
			c1.068-0.511,1.994-1.178,2.789-2.021c0.793-0.853,1.423-1.841,1.884-2.975c0.466-1.135,0.69-2.355,0.681-3.649
			C320.889,98.542,320.649,97.328,320.167,96.2z M318.5,103.409c-0.286,0.688-0.684,1.276-1.18,1.76
			c-0.499,0.481-1.071,0.812-1.728,0.979c-0.678,0.166-1.34,0.148-2-0.06c-0.658-0.203-1.278-0.545-1.865-1.014
			c-0.587-0.481-1.105-1.084-1.54-1.818c-0.437-0.729-0.763-1.541-0.979-2.424c-0.223-0.887-0.296-1.762-0.246-2.61
			c0.051-0.855,0.217-1.627,0.502-2.302c0.294-0.681,0.686-1.264,1.185-1.749c0.501-0.481,1.084-0.804,1.765-0.979
			c0.653-0.166,1.314-0.152,1.98,0.041c0.665,0.197,1.292,0.536,1.87,1.02c0.569,0.49,1.081,1.099,1.533,1.814
			c0.449,0.721,0.784,1.529,0.999,2.411c0.218,0.896,0.292,1.758,0.229,2.61C318.958,101.944,318.784,102.718,318.5,103.409z"/>
	</g>
	<path fill="#F6882F" d="M264.715,94.107c-0.021-0.122-0.041-0.261-0.06-0.396l-0.012-0.012
		C264.644,93.699,264.67,93.86,264.715,94.107z"/>
</g>
</svg>
